<svg xmlns="http://www.w3.org/2000/svg" xmlns:xlink="http://www.w3.org/1999/xlink" fill="none" version="1.1" width="20" height="20" viewBox="0 0 20 20"><g><path d="M12,18L8,18L8,20L6,20L6,18L3,18C2.44772,18,2,17.5523,2,17L2,14L0,14L0,12L2,12L2,8L0,8L0,6L2,6L2,3C2,2.44772,2.44772,2,3,2L6,2L6,0L8,0L8,2L12,2L12,0L14,0L14,2L17,2C17.5523,2,18,2.44772,18,3L18,6L20,6L20,8L18,8L18,12L20,12L20,14L18,14L18,17C18,17.5523,17.5523,18,17,18L14,18L14,20L12,20L12,18ZM5,5L5,9L9,9L9,5L5,5Z" fill="#E73C36" fill-opacity="1"/></g></svg>